<svg xmlns="http://www.w3.org/2000/svg" xmlns:xlink="http://www.w3.org/1999/xlink" width="242.002" height="28.006" viewBox="0 0 242.002 28.006">
  <defs>
    <clipPath id="clip-path">
      <rect id="사각형_45982" data-name="사각형 45982" width="242.001" height="28.005" fill="#009178"/>
    </clipPath>
  </defs>
  <g id="그룹_95959" data-name="그룹 95959" transform="translate(19572 10644.001)">
    <g id="그룹_95950" data-name="그룹 95950" transform="translate(-19572 -10644.001)">
      <path id="패스_67228" data-name="패스 67228" d="M31.994,3.39V20.254H29.055V12.015H21.7v8.239H18.756V3.39H21.7v6.651h7.359V3.39Z" transform="translate(12.336 2.229)" fill="#009178"/>
      <g id="그룹_95949" data-name="그룹 95949" transform="translate(0 0)">
        <g id="그룹_95948" data-name="그룹 95948" clip-path="url(#clip-path)">
          <path id="패스_67229" data-name="패스 67229" d="M35.87,18.747a2.832,2.832,0,0,1-.449-1.416,5.248,5.248,0,0,1-3.862,1.694,3.667,3.667,0,0,1-3.819-3.841c0-2.188,1.653-4.012,4.527-4.333l2.918-.322c0-2.274-1.2-2.961-2.488-2.961a6.033,6.033,0,0,0-3.669,1.48l-.472-2.08a7.355,7.355,0,0,1,4.355-1.288c2.274,0,5.064,1.137,5.064,4.655v5.343a8.414,8.414,0,0,0,.535,3.068Zm-.643-6.437-1.888.257c-1.61.216-2.745,1.139-2.745,2.49a1.885,1.885,0,0,0,1.823,2.016c1.522,0,2.81-.729,2.81-3.539Z" transform="translate(18.244 3.736)" fill="#009178"/>
          <path id="패스_67230" data-name="패스 67230" d="M38.011,5.916V7.161a4.817,4.817,0,0,1,3.6-1.48c3,0,4.849,1.888,4.849,4.976v8.09H43.7V11.13c0-2.1-1.01-3.5-2.79-3.5-1.608,0-2.874,1.353-2.874,3.584v7.531H35.286V5.916Z" transform="translate(23.208 3.736)" fill="#009178"/>
          <path id="패스_67231" data-name="패스 67231" d="M51.106,18.747a2.832,2.832,0,0,1-.449-1.416,5.25,5.25,0,0,1-3.862,1.694,3.667,3.667,0,0,1-3.819-3.841c0-2.188,1.653-4.012,4.527-4.333l2.918-.322c0-2.274-1.2-2.961-2.488-2.961a6.033,6.033,0,0,0-3.669,1.48l-.472-2.08a7.351,7.351,0,0,1,4.355-1.288c2.274,0,5.064,1.137,5.064,4.655v5.343a8.414,8.414,0,0,0,.535,3.068Zm-.643-6.437-1.888.257c-1.61.216-2.747,1.139-2.747,2.49a1.886,1.886,0,0,0,1.825,2.016c1.522,0,2.81-.729,2.81-3.539Z" transform="translate(28.265 3.736)" fill="#009178"/>
          <path id="패스_67232" data-name="패스 67232" d="M61.783,3.39V5.364H55.454V11.07h6.178v1.953H55.454v7.231H52.515V3.39Z" transform="translate(34.54 2.229)" fill="#009178"/>
          <path id="패스_67233" data-name="패스 67233" d="M58.948,4.534A1.683,1.683,0,0,1,60.579,2.8,1.7,1.7,0,0,1,62.23,4.534,1.681,1.681,0,0,1,60.579,6.25a1.664,1.664,0,0,1-1.631-1.716m.259,3.282h2.768V20.647H59.207Z" transform="translate(38.771 1.837)" fill="#009178"/>
          <path id="패스_67234" data-name="패스 67234" d="M64.974,5.916V7.161a4.817,4.817,0,0,1,3.6-1.48c3,0,4.849,1.888,4.849,4.976v8.09H70.66V11.13c0-2.1-1.01-3.5-2.79-3.5C66.261,7.632,65,8.985,65,11.216v7.531H62.249V5.916Z" transform="translate(40.942 3.736)" fill="#009178"/>
          <path id="패스_67235" data-name="패스 67235" d="M78.069,18.747a2.849,2.849,0,0,1-.449-1.416,5.248,5.248,0,0,1-3.862,1.694,3.667,3.667,0,0,1-3.819-3.841c0-2.188,1.653-4.012,4.527-4.333l2.918-.322c0-2.274-1.2-2.961-2.488-2.961a6.033,6.033,0,0,0-3.669,1.48l-.472-2.08a7.355,7.355,0,0,1,4.355-1.288c2.274,0,5.064,1.137,5.064,4.655v5.343a8.414,8.414,0,0,0,.535,3.068Zm-.643-6.437-1.888.257c-1.61.216-2.745,1.139-2.745,2.49a1.885,1.885,0,0,0,1.823,2.016c1.522,0,2.81-.729,2.81-3.539Z" transform="translate(45.999 3.736)" fill="#009178"/>
          <path id="패스_67236" data-name="패스 67236" d="M80.209,5.916V7.161a4.82,4.82,0,0,1,3.6-1.48c3,0,4.849,1.888,4.849,4.976v8.09H85.9V11.13c0-2.1-1.008-3.5-2.79-3.5-1.608,0-2.874,1.353-2.874,3.584v7.531H77.484V5.916Z" transform="translate(50.962 3.736)" fill="#009178"/>
          <path id="패스_67237" data-name="패스 67237" d="M95.391,18a7.2,7.2,0,0,1-3.5.988A6.358,6.358,0,0,1,85.264,12.4a6.559,6.559,0,0,1,6.78-6.715,5.921,5.921,0,0,1,3.09.816l-.386,1.888a4.838,4.838,0,0,0-2.574-.751c-1.91,0-4.076,1.567-4.076,4.655,0,2.49,1.63,4.743,4.076,4.743a5.043,5.043,0,0,0,2.918-1.01Z" transform="translate(56.079 3.736)" fill="#009178"/>
          <path id="패스_67238" data-name="패스 67238" d="M92.241,4.534A1.683,1.683,0,0,1,93.872,2.8a1.7,1.7,0,0,1,1.651,1.739A1.681,1.681,0,0,1,93.872,6.25a1.664,1.664,0,0,1-1.631-1.716M92.5,7.816h2.767V20.647H92.5Z" transform="translate(60.668 1.837)" fill="#009178"/>
          <path id="패스_67239" data-name="패스 67239" d="M103.349,18.747a2.832,2.832,0,0,1-.449-1.416,5.248,5.248,0,0,1-3.862,1.694,3.667,3.667,0,0,1-3.819-3.841c0-2.188,1.653-4.012,4.527-4.333l2.918-.322c0-2.274-1.2-2.961-2.488-2.961a6.033,6.033,0,0,0-3.669,1.48l-.472-2.08a7.351,7.351,0,0,1,4.355-1.288c2.274,0,5.064,1.137,5.064,4.655v5.343a8.414,8.414,0,0,0,.535,3.068Zm-.643-6.437-1.888.257c-1.61.216-2.747,1.139-2.747,2.49a1.885,1.885,0,0,0,1.823,2.016c1.523,0,2.811-.729,2.811-3.539Z" transform="translate(62.626 3.736)" fill="#009178"/>
          <rect id="사각형_45981" data-name="사각형 45981" width="2.788" height="17.593" transform="translate(170.441 4.889)" fill="#009178"/>
          <path id="패스_67240" data-name="패스 67240" d="M119.177,12.409h2.939V19.4a15.834,15.834,0,0,1-5.643,1.18c-5.814,0-9.074-3.906-9.074-8.711,0-4.441,3.282-8.625,9.268-8.625A11.235,11.235,0,0,1,121.945,4.6l-.472,2.037a8.009,8.009,0,0,0-4.763-1.351c-3.884,0-6.286,2.768-6.286,6.586,0,4.163,2.788,6.672,6.027,6.672a6.044,6.044,0,0,0,2.725-.514Z" transform="translate(70.638 2.135)" fill="#009178"/>
          <path id="패스_67241" data-name="패스 67241" d="M120.255,5.916V7.4a4.866,4.866,0,0,1,3.239-1.716,4.058,4.058,0,0,1,2.1.449l-.516,1.953a3.857,3.857,0,0,0-2.017-.386,3.263,3.263,0,0,0-2.788,3.561v7.49h-2.768V5.916Z" transform="translate(77.286 3.736)" fill="#009178"/>
          <path id="패스_67242" data-name="패스 67242" d="M122.234,12.31c0-3.861,2.7-6.629,6.135-6.629s6.18,2.768,6.18,6.629c0,3.906-2.747,6.672-6.18,6.672s-6.135-2.767-6.135-6.672m2.9,0c0,2.982,1.416,4.935,3.239,4.935s3.261-1.953,3.261-4.935c0-2.961-1.437-4.913-3.261-4.913S125.13,9.35,125.13,12.31" transform="translate(80.395 3.736)" fill="#009178"/>
          <path id="패스_67243" data-name="패스 67243" d="M139.113,18.654V17.43a4.906,4.906,0,0,1-3.6,1.459c-3,0-4.849-1.886-4.849-4.976V5.823h2.767V13.44c0,2.1,1.01,3.5,2.79,3.5,1.61,0,2.874-1.353,2.874-3.584V5.823h2.747V18.654Z" transform="translate(85.937 3.829)" fill="#009178"/>
          <path id="패스_67244" data-name="패스 67244" d="M138.672,23.639V5.916h2.79v1.5a5.115,5.115,0,0,1,3.625-1.737c3.455,0,5.707,2.661,5.707,6.672,0,3.925-2.253,6.629-5.643,6.629a5.662,5.662,0,0,1-3.69-1.565v6.221Zm2.79-11.264c0,2.9,1.459,4.913,3.2,4.913,1.888,0,3.284-2.145,3.284-4.913,0-2.811-1.4-4.913-3.284-4.913-1.8,0-3.2,2.1-3.2,4.913" transform="translate(91.206 3.736)" fill="#009178"/>
          <path id="패스_67245" data-name="패스 67245" d="M6.485,2.685a2.619,2.619,0,1,0,5.238,0,1.536,1.536,0,0,0-.139-.63c-.227-.476-.477-.706-.456-1.276C11.165.01,10.178,0,9.646,0A3.837,3.837,0,0,0,7.931.343,2.613,2.613,0,0,0,6.485,2.624Z" transform="translate(4.265 -0.001)" fill="#dc231e"/>
          <path id="패스_67246" data-name="패스 67246" d="M26.666,3.685c-.189-.288-.567-.29-1.27-.159a55.666,55.666,0,0,1-9,.986,58.881,58.881,0,0,1-7.181-.139c-2.024-.181-5.853-.8-6.707-.882A3.06,3.06,0,0,0,.467,3.82,1.591,1.591,0,0,0,.381,5.981,4.89,4.89,0,0,0,3.456,7.912a45.224,45.224,0,0,0,9.53.2A49.252,49.252,0,0,0,21.4,6.691a26.9,26.9,0,0,0,4.29-1.618c.529-.3,1.286-.87.971-1.388" transform="translate(0 2.263)" fill="#009178"/>
          <path id="패스_67247" data-name="패스 67247" d="M13.1,7.721a5.711,5.711,0,0,0-5.585.033,5.773,5.773,0,0,0-2.1,7.984c1.359,2.13,3.178,1.621,3.7,1.081a1.426,1.426,0,0,0,.06-1.921,2.8,2.8,0,0,1-.777-1.835,2.045,2.045,0,0,1,3.6-1.328,3.252,3.252,0,0,1,.567,2.274,26.057,26.057,0,0,1-2.112,8.424c-.08.2-.216.7.162.905.288.144.628.013.961-.282a15.177,15.177,0,0,0,3.256-4.637A13.27,13.27,0,0,0,16.035,11.8,5.72,5.72,0,0,0,13.1,7.721" transform="translate(3.021 4.608)" fill="#009178"/>
        </g>
      </g>
    </g>
  </g>
</svg>
